<?xml version="1.0" encoding="UTF-8" ?>
<!DOCTYPE svg PUBLIC "-//W3C//DTD SVG 1.1//EN" "http://www.w3.org/Graphics/SVG/1.1/DTD/svg11.dtd">
<svg width="852pt" height="448pt" viewBox="0 0 852 448" version="1.1" xmlns="http://www.w3.org/2000/svg">
<g id="#9a9a9aff">
<path fill="#9a9a9a" opacity="1.00" d=" M 37.75 88.77 C 76.67 79.67 117.45 83.76 155.85 93.43 C 180.92 99.92 205.47 108.70 228.70 120.18 C 259.14 135.91 288.26 155.11 311.90 180.13 C 328.35 197.72 342.39 218.39 348.59 241.91 C 353.50 259.74 350.57 278.97 343.58 295.83 C 334.24 317.78 314.61 333.65 293.15 343.02 C 253.84 360.21 208.72 362.00 167.44 351.21 C 166.78 355.99 167.21 361.32 164.47 365.51 C 158.29 371.50 146.43 372.69 141.04 365.04 C 136.27 357.38 135.56 348.08 134.35 339.35 C 104.11 325.19 76.38 304.39 57.04 276.92 C 52.34 270.02 52.82 260.41 57.75 253.76 C 63.01 246.49 71.11 242.00 78.93 237.97 C 97.08 229.06 116.70 223.56 136.51 219.82 C 137.31 202.89 138.46 185.86 142.19 169.28 C 143.28 165.34 144.10 160.99 146.93 157.86 C 149.29 155.53 152.41 158.00 154.00 159.99 C 157.52 164.48 161.37 169.11 162.59 174.84 C 165.82 188.67 166.53 202.91 166.96 217.06 C 184.47 215.98 202.00 217.84 219.16 221.31 C 234.23 223.86 249.72 228.28 261.47 238.52 C 267.58 243.89 272.43 251.62 271.83 260.03 C 271.45 271.02 263.63 280.89 253.45 284.68 C 248.74 286.74 243.40 285.93 238.70 284.25 C 235.30 282.96 231.39 282.12 229.10 279.04 C 233.12 272.73 242.61 273.23 246.33 266.57 C 248.14 263.25 244.88 260.26 242.28 258.71 C 236.11 255.19 229.11 253.46 222.23 251.92 C 203.58 248.14 184.50 246.95 165.50 246.80 C 165.56 273.14 166.33 299.48 166.95 325.81 C 187.09 329.44 207.79 331.44 228.18 328.71 C 245.05 326.47 261.85 322.49 277.31 315.24 C 290.41 308.95 302.86 299.87 310.03 286.95 C 316.51 275.52 318.22 261.77 315.88 248.94 C 313.43 234.97 306.63 222.14 298.16 210.90 C 281.22 188.42 258.40 171.15 234.61 156.47 C 190.44 129.75 140.52 112.06 89.03 107.13 C 70.68 105.46 52.06 105.67 33.89 108.98 C 28.34 110.16 22.47 110.99 17.68 114.29 C 22.87 116.90 29.13 116.81 34.03 120.05 C 36.01 121.67 33.92 124.40 32.03 124.96 C 23.87 127.59 14.48 128.16 6.54 124.47 C 3.02 122.91 0.83 118.87 1.85 115.08 C 3.09 110.46 6.27 106.73 8.90 102.84 C 11.33 99.37 14.04 95.58 18.29 94.30 C 24.79 92.50 31.16 90.26 37.75 88.77 M 73.81 258.91 C 70.26 260.31 66.10 261.60 64.15 265.17 C 62.56 268.35 64.35 271.99 66.64 274.31 C 84.88 293.96 108.41 308.18 133.49 317.31 C 135.15 294.19 136.23 271.00 135.93 247.81 C 114.95 249.48 93.76 251.89 73.81 258.91 Z" />
<path fill="#9a9a9a" opacity="1.00" d=" M 389.80 102.87 C 399.59 100.92 410.05 100.30 419.61 103.69 C 423.89 105.16 427.48 108.31 429.43 112.40 C 436.17 112.91 443.40 114.69 448.11 119.90 C 452.81 124.90 453.48 132.37 452.31 138.85 C 450.39 148.77 444.71 157.50 438.13 164.99 C 424.86 179.70 406.97 191.02 387.03 193.44 C 378.67 194.69 370.15 193.15 362.44 189.86 C 360.09 193.61 358.07 198.10 353.88 200.12 C 351.10 201.39 348.28 199.55 346.51 197.48 C 342.06 192.06 338.99 184.63 341.83 177.70 C 334.26 170.52 330.92 159.29 333.52 149.16 C 335.52 141.56 339.88 134.81 344.73 128.72 C 355.98 114.99 372.46 106.09 389.80 102.87 M 356.68 140.67 C 352.84 146.07 348.71 152.92 351.45 159.72 C 360.41 147.34 370.32 135.39 382.94 126.56 C 372.80 127.65 362.78 132.26 356.68 140.67 M 403.05 139.07 C 390.98 147.68 380.30 158.30 371.93 170.55 C 383.93 172.54 396.57 172.24 408.05 167.90 C 419.16 163.87 428.60 155.35 433.60 144.63 C 435.05 141.00 435.72 136.65 433.87 133.03 C 432.40 130.25 428.96 129.28 426.02 129.45 C 417.51 129.95 409.90 134.34 403.05 139.07 Z" />
<path fill="#9a9a9a" opacity="1.00" d=" M 588.69 196.62 C 590.34 194.48 593.57 195.14 595.56 196.45 C 605.92 203.01 613.47 213.21 618.85 224.07 C 626.72 240.49 629.96 258.86 629.93 276.98 C 629.85 288.00 628.56 299.06 625.47 309.65 C 623.08 317.14 617.85 324.45 610.06 326.85 C 603.25 329.02 595.93 325.80 591.57 320.48 C 580.81 308.18 573.27 293.50 565.84 279.06 C 562.87 273.80 560.85 267.76 556.34 263.56 C 554.75 269.22 554.67 275.12 554.31 280.94 C 553.60 294.34 553.96 307.82 552.09 321.14 C 551.27 325.72 550.33 331.42 545.49 333.46 C 539.43 336.68 531.50 332.93 529.19 326.71 C 526.95 320.41 526.68 313.63 526.46 307.01 C 526.25 290.04 528.03 273.08 531.21 256.43 C 533.13 247.22 535.13 237.88 539.39 229.43 C 541.37 225.67 544.51 221.88 548.95 221.23 C 552.93 220.85 556.04 223.79 558.56 226.47 C 573.30 242.39 583.60 261.63 594.98 279.94 C 597.44 283.53 599.38 287.71 603.10 290.22 C 605.82 287.14 604.66 282.66 604.48 278.94 C 601.15 255.44 595.23 232.39 588.56 209.63 C 587.47 205.43 586.70 200.67 588.69 196.62 Z" />
<path fill="#9a9a9a" opacity="1.00" d=" M 774.18 212.12 C 776.27 210.30 778.96 207.66 781.97 208.85 C 783.48 210.88 783.14 213.60 783.13 215.99 C 782.66 227.07 775.61 236.18 770.81 245.74 C 763.17 258.74 755.73 273.25 757.58 288.83 C 767.73 273.50 778.33 258.39 790.84 244.88 C 798.80 236.40 807.46 228.14 818.14 223.21 C 824.66 220.19 832.95 219.47 839.03 223.88 C 846.74 229.34 849.64 239.06 850.94 247.98 C 852.97 264.95 849.79 282.92 840.33 297.34 C 831.90 310.50 821.03 322.56 807.24 330.21 C 796.93 335.96 784.59 338.04 773.04 335.34 C 760.62 365.63 751.57 397.38 747.35 429.88 C 746.72 433.49 746.81 438.06 743.38 440.32 C 740.18 441.89 736.74 439.65 734.15 437.86 C 724.16 430.16 717.97 417.68 717.99 405.06 C 717.83 390.75 721.14 376.69 725.08 363.03 C 729.90 346.57 736.37 330.65 743.46 315.05 C 735.24 301.32 734.69 284.22 738.76 269.06 C 744.90 247.24 757.80 227.64 774.18 212.12 M 825.89 248.90 C 810.31 265.79 796.58 284.54 786.36 305.17 C 800.13 302.95 814.00 297.02 822.93 285.95 C 831.37 276.46 837.18 263.92 836.21 251.01 C 836.08 248.72 835.43 245.84 832.98 245.02 C 830.09 244.83 827.78 247.00 825.89 248.90 Z" />
<path fill="#9a9a9a" opacity="1.00" d=" M 463.14 213.20 C 472.39 212.17 481.72 212.55 490.99 212.89 C 500.63 213.44 510.48 214.09 519.59 217.52 C 521.89 218.58 525.16 219.93 525.01 222.98 C 524.24 229.14 519.88 235.58 513.21 236.09 C 489.48 238.18 465.69 239.94 442.13 243.59 C 437.18 244.56 431.99 245.07 427.42 247.31 C 425.25 248.38 425.36 252.00 428.12 252.09 C 442.29 254.71 456.67 256.24 471.08 256.52 C 483.98 257.35 497.55 259.05 508.62 266.25 C 517.49 271.92 520.62 283.04 520.57 293.03 C 520.42 301.75 520.11 311.38 514.41 318.51 C 510.26 323.95 503.52 326.22 497.41 328.66 C 479.87 335.10 460.21 337.49 442.06 332.14 C 430.96 328.89 420.82 322.49 413.08 313.92 C 408.06 308.08 405.42 299.50 408.42 292.12 C 411.65 285.15 418.33 279.83 425.90 278.40 C 439.80 275.43 454.17 277.43 467.86 280.54 C 474.40 282.03 481.33 283.89 486.21 288.80 C 487.93 290.18 487.58 292.81 486.23 294.33 C 483.45 297.59 479.27 299.21 475.21 300.20 C 464.41 302.77 452.77 301.13 442.96 296.00 C 438.07 293.42 432.63 291.21 427.00 291.63 C 422.07 292.24 417.41 299.40 421.61 303.44 C 426.39 308.22 433.70 308.47 440.03 309.12 C 453.12 309.98 466.36 308.51 478.98 304.89 C 486.07 302.77 493.22 299.80 498.50 294.43 C 500.83 292.11 501.78 288.13 499.74 285.32 C 496.93 281.32 491.86 280.08 487.44 278.73 C 473.27 275.11 458.64 273.47 444.04 273.19 C 433.74 272.73 423.32 272.42 413.29 269.81 C 409.40 268.63 404.74 267.13 403.17 262.95 C 400.61 255.84 402.18 248.07 404.12 241.01 C 406.09 233.52 412.73 228.55 419.28 225.15 C 432.92 218.26 448.08 215.05 463.14 213.20 Z" />
<path fill="#9a9a9a" opacity="1.00" d=" M 661.09 217.72 C 680.55 214.62 700.24 212.16 719.99 212.73 C 727.31 212.95 732.74 218.83 736.50 224.54 C 738.47 227.87 741.24 231.44 740.49 235.54 C 739.95 238.14 737.09 238.93 734.85 239.38 C 718.03 242.33 700.94 243.23 683.93 244.29 C 682.33 249.33 680.83 254.40 679.24 259.44 C 690.20 258.77 701.22 258.21 712.18 259.27 C 714.63 259.25 716.52 261.53 716.59 263.89 C 716.83 267.76 716.78 271.68 716.21 275.52 C 715.80 278.39 712.70 279.70 710.13 279.87 C 696.94 281.03 683.71 281.50 670.49 282.24 C 668.47 289.80 665.75 297.18 664.16 304.85 C 665.68 305.23 667.26 305.20 668.79 304.82 C 682.48 301.91 696.25 299.26 710.17 297.67 C 717.20 296.39 723.30 303.31 723.68 309.92 C 724.05 314.44 720.02 317.45 717.01 320.14 C 705.31 329.64 691.64 336.75 677.21 341.08 C 668.57 343.36 658.41 344.86 650.61 339.39 C 642.99 334.06 636.82 325.65 636.27 316.12 C 635.40 304.61 638.89 293.38 642.76 282.70 C 641.37 276.93 638.32 270.75 640.89 264.83 C 643.21 261.67 647.65 261.72 651.18 261.12 C 654.41 254.85 657.29 248.41 660.43 242.10 C 654.41 241.73 647.95 239.91 644.08 234.97 C 642.03 232.26 639.78 229.40 639.29 225.94 C 639.02 223.48 641.61 222.13 643.60 221.52 C 649.32 219.83 655.22 218.79 661.09 217.72 Z" />
<path fill="#9a9a9a" opacity="1.00" d=" M 372.28 216.27 C 374.83 214.54 378.31 215.57 380.13 217.87 C 384.51 222.93 387.94 229.14 388.45 235.92 C 389.67 253.25 390.41 270.61 391.27 287.96 C 391.91 300.66 392.50 313.42 391.45 326.11 C 391.04 329.42 390.85 333.02 388.79 335.80 C 384.94 338.85 379.56 338.94 374.94 338.03 C 371.06 337.26 366.82 335.21 365.56 331.15 C 364.01 326.68 363.66 321.91 363.24 317.23 C 362.02 299.51 362.87 281.73 363.39 263.99 C 363.91 251.67 364.27 239.27 366.42 227.10 C 367.34 223.13 368.19 218.23 372.28 216.27 Z" />
</g>
</svg>
