<?xml version="1.0" encoding="UTF-8" ?>
<!DOCTYPE svg PUBLIC "-//W3C//DTD SVG 1.1//EN" "http://www.w3.org/Graphics/SVG/1.1/DTD/svg11.dtd">
<svg width="840pt" height="448pt" viewBox="0 0 840 448" version="1.1" xmlns="http://www.w3.org/2000/svg">
<g id="#9b9b9bff">
<path fill="#9b9b9b" opacity="1.00" d=" M 729.18 165.61 C 727.02 162.15 730.11 157.41 733.94 157.07 C 736.97 156.55 739.27 158.86 741.51 160.49 C 773.25 184.40 805.06 208.25 836.81 232.15 C 838.57 233.33 839.46 235.31 840.00 237.29 L 840.00 239.68 C 839.10 244.32 834.30 246.26 831.05 249.06 C 800.22 272.25 769.34 295.38 738.51 318.56 C 734.24 322.21 726.87 317.51 728.73 312.11 C 735.66 300.97 744.20 290.73 749.34 278.54 C 760.48 253.70 760.60 224.29 749.80 199.32 C 744.77 187.03 736.35 176.64 729.18 165.61 Z" />
<path fill="#9b9b9b" opacity="1.00" d=" M 49.86 163.91 C 66.10 160.54 83.68 161.81 98.66 169.25 C 113.56 176.35 125.06 191.17 126.01 207.93 C 116.45 207.95 106.89 207.94 97.34 207.93 C 96.52 201.88 92.93 196.52 88.20 192.79 C 77.31 184.06 61.11 183.14 49.04 189.96 C 40.75 194.63 35.16 203.09 32.39 212.05 C 29.07 223.01 28.37 234.80 30.32 246.09 C 32.52 257.86 38.27 269.80 48.79 276.24 C 57.12 281.59 67.57 281.84 77.04 280.18 C 82.97 279.10 88.93 276.66 92.93 271.99 C 98.14 266.27 99.37 258.21 99.59 250.76 C 89.58 250.71 79.56 250.81 69.54 250.71 C 69.57 243.26 69.58 235.82 69.53 228.37 C 88.36 228.24 107.20 228.35 126.03 228.31 C 125.59 243.26 127.70 258.66 123.17 273.18 C 120.32 282.70 114.12 291.33 105.45 296.34 C 94.85 302.69 82.24 304.52 70.07 304.79 C 56.10 305.32 41.79 301.83 30.23 293.81 C 13.35 282.42 3.02 262.91 0.71 242.91 C -1.31 224.44 1.90 204.85 12.20 189.13 C 20.67 176.06 34.66 167.00 49.86 163.91 Z" />
<path fill="#9b9b9b" opacity="1.00" d=" M 142.31 165.07 C 151.20 165.05 160.10 165.07 169.00 165.06 C 169.00 210.12 169.00 255.18 168.99 300.25 C 160.11 300.26 151.23 300.23 142.35 300.26 C 142.26 255.20 142.34 210.13 142.31 165.07 Z" />
<path fill="#9b9b9b" opacity="1.00" d=" M 296.01 165.06 C 304.75 165.07 313.50 165.06 322.24 165.07 C 322.21 181.32 322.29 197.58 322.29 213.83 C 327.08 207.23 333.92 201.92 341.92 199.92 C 353.81 196.92 367.30 199.21 376.80 207.21 C 385.92 214.83 390.68 226.51 392.29 238.06 C 393.88 250.93 393.26 264.41 388.30 276.53 C 384.78 285.14 378.78 292.94 370.60 297.55 C 361.00 303.07 349.09 304.36 338.47 301.36 C 331.47 299.42 325.57 294.55 321.75 288.46 C 321.74 292.39 321.68 296.32 321.60 300.25 C 313.07 300.24 304.54 300.23 296.01 300.25 C 296.00 255.18 296.00 210.12 296.01 165.06 M 340.25 221.36 C 332.89 221.91 326.63 227.43 324.27 234.28 C 321.15 242.77 320.62 252.20 322.12 261.08 C 323.63 268.47 327.84 275.69 334.71 279.24 C 341.83 283.04 351.23 281.71 357.04 276.10 C 364.08 269.48 366.32 259.33 366.12 249.99 C 365.84 242.16 364.76 233.65 359.41 227.51 C 354.73 222.13 347.07 220.52 340.25 221.36 Z" />
<path fill="#9b9b9b" opacity="1.00" d=" M 624.51 174.76 C 633.22 174.71 641.93 174.82 650.65 174.70 C 650.89 182.75 650.67 190.81 650.76 198.87 C 664.41 198.93 678.06 198.77 691.71 198.95 C 691.69 206.01 691.62 213.06 691.76 220.11 C 678.05 220.14 664.34 220.11 650.63 220.13 C 650.67 234.09 650.54 248.07 650.70 262.03 C 650.84 268.17 652.48 275.53 658.43 278.59 C 664.29 281.36 672.26 280.81 676.83 275.88 C 679.98 272.42 680.79 267.61 681.27 263.13 C 689.57 263.10 697.88 263.23 706.18 263.19 C 706.09 273.05 703.41 283.31 696.78 290.84 C 690.33 298.21 680.65 302.10 671.03 302.84 C 660.31 303.71 648.83 302.45 639.74 296.28 C 632.35 291.42 627.58 283.32 625.67 274.81 C 624.10 268.66 624.56 262.27 624.50 256.00 C 624.50 228.92 624.49 201.84 624.51 174.76 Z" />
<path fill="#9b9b9b" opacity="1.00" d=" M 220.54 199.75 C 235.32 197.06 251.66 199.00 264.13 207.88 C 275.26 215.63 281.58 228.81 283.09 242.06 C 284.58 255.96 282.77 270.89 274.68 282.65 C 267.59 293.34 255.58 300.19 243.00 302.02 C 228.49 304.19 212.64 302.28 200.50 293.52 C 190.19 286.27 183.87 274.38 181.89 262.10 C 180.69 254.66 180.70 247.02 181.81 239.57 C 185.47 220.29 201.34 203.89 220.54 199.75 M 226.41 221.60 C 218.62 222.80 212.39 229.03 210.36 236.52 C 207.70 246.16 207.66 256.70 210.73 266.25 C 212.92 273.57 219.49 279.33 227.10 280.35 C 235.06 281.73 244.48 280.44 250.00 273.99 C 255.25 268.02 256.46 259.75 256.74 252.09 C 256.81 243.47 255.74 233.99 249.69 227.35 C 243.82 221.17 234.41 220.06 226.41 221.60 Z" />
<path fill="#9b9b9b" opacity="1.00" d=" M 420.50 207.56 C 429.94 200.17 442.46 198.84 454.05 198.76 C 464.96 198.95 476.79 200.34 485.47 207.60 C 493.64 214.50 496.27 225.76 496.29 236.03 C 496.21 257.45 496.27 278.88 496.24 300.30 C 487.98 300.40 479.72 300.35 471.45 300.40 C 470.63 297.63 470.19 294.77 469.89 291.91 C 462.13 299.75 450.82 302.99 440.01 303.01 C 431.28 303.10 421.98 301.60 414.95 296.04 C 409.47 291.74 406.48 284.88 406.20 278.00 C 405.94 270.68 406.77 262.95 410.76 256.63 C 414.26 250.94 420.35 247.45 426.53 245.37 C 436.68 242.01 447.43 241.26 457.90 239.40 C 461.21 238.64 464.79 237.79 467.21 235.22 C 470.09 231.66 469.75 225.71 466.01 222.86 C 462.11 219.71 456.85 219.08 452.01 219.08 C 447.25 219.09 442.13 220.18 438.68 223.68 C 435.96 226.29 434.93 230.04 434.21 233.61 C 425.93 233.63 417.65 233.65 409.38 233.60 C 409.39 223.95 412.64 213.67 420.50 207.56 M 437.38 263.29 C 432.54 266.71 431.62 273.78 434.07 278.89 C 436.12 282.78 440.86 284.16 444.98 284.13 C 454.31 284.40 463.96 279.21 467.73 270.46 C 470.34 264.76 469.28 258.39 469.68 252.34 C 460.01 258.87 446.94 256.47 437.38 263.29 Z" />
<path fill="#9b9b9b" opacity="1.00" d=" M 559.95 200.13 C 570.55 197.68 582.55 198.10 591.94 204.11 C 598.22 208.02 602.43 214.70 604.10 221.82 C 605.26 226.45 605.30 231.26 605.25 236.01 C 605.24 257.44 605.26 278.87 605.24 300.31 C 596.29 300.32 587.34 300.30 578.39 300.31 C 578.33 279.20 578.45 258.08 578.29 236.97 C 578.06 232.24 577.14 226.83 573.16 223.75 C 569.32 221.13 564.45 220.95 559.97 221.06 C 554.56 221.15 548.91 223.13 545.42 227.42 C 541.86 232.12 540.93 238.23 540.99 243.98 C 541.04 262.78 540.93 281.57 541.06 300.37 C 532.12 300.38 523.19 300.40 514.25 300.30 C 514.28 267.34 514.21 234.38 514.19 201.42 C 522.69 201.45 531.18 201.43 539.68 201.44 C 539.69 206.08 539.69 210.73 539.68 215.38 C 544.01 207.83 551.37 201.98 559.95 200.13 Z" />
</g>
</svg>
