<?xml version="1.0" encoding="UTF-8" ?>
<!DOCTYPE svg PUBLIC "-//W3C//DTD SVG 1.1//EN" "http://www.w3.org/Graphics/SVG/1.1/DTD/svg11.dtd">
<svg width="898pt" height="448pt" viewBox="0 0 898 448" version="1.1" xmlns="http://www.w3.org/2000/svg">
<g id="#9a9a9aff">
<path fill="#9a9a9a" opacity="1.00" d=" M 518.96 61.82 C 549.01 74.19 579.43 85.66 609.42 98.17 C 609.25 105.49 609.24 112.81 609.31 120.14 C 579.16 132.01 549.14 144.24 518.88 155.86 C 518.88 146.66 518.97 137.46 518.95 128.26 C 536.43 121.85 553.98 115.59 571.36 108.89 C 553.87 102.30 536.38 95.70 518.87 89.18 C 519.04 80.06 518.87 70.94 518.96 61.82 Z" />
<path fill="#9a9a9a" opacity="1.00" d=" M 553.69 168.03 C 563.25 163.97 572.80 159.85 582.44 155.96 C 582.49 166.41 582.36 176.86 582.39 187.31 C 588.90 187.29 595.41 187.37 601.92 187.23 C 601.95 194.40 601.94 201.58 601.93 208.75 C 595.43 208.74 588.94 208.75 582.45 208.75 C 582.43 225.15 582.42 241.55 582.46 257.94 C 582.55 261.84 583.74 266.51 587.65 268.22 C 592.43 269.92 597.58 268.85 602.37 267.74 C 602.38 275.25 602.37 282.76 602.37 290.28 C 590.69 293.00 577.75 293.73 566.76 288.18 C 558.33 283.82 554.24 274.08 553.90 264.98 C 553.44 246.23 553.88 227.46 553.62 208.71 C 549.69 208.79 545.77 208.73 541.84 208.77 C 541.78 201.59 541.82 194.42 541.82 187.25 C 545.77 187.25 549.73 187.26 553.69 187.24 C 553.69 180.84 553.69 174.44 553.69 168.03 Z" />
<path fill="#9a9a9a" opacity="1.00" d=" M 17.73 192.68 C 29.00 184.79 43.49 182.82 56.88 184.69 C 63.02 185.67 69.33 186.92 74.64 190.32 C 83.63 195.98 89.40 206.34 89.58 216.95 C 90.01 241.34 89.73 265.73 89.81 290.12 C 80.65 290.12 71.48 290.16 62.32 290.05 C 62.31 286.13 62.30 282.21 62.32 278.30 C 57.19 284.29 50.78 289.79 42.84 291.40 C 35.03 292.88 26.74 292.61 19.26 289.78 C 11.96 287.04 5.56 281.33 3.05 273.82 C -0.28 264.01 0.04 252.51 5.63 243.57 C 9.13 237.70 14.98 233.69 21.22 231.19 C 33.91 226.05 47.90 226.49 61.35 226.57 C 61.07 220.78 61.69 214.15 57.69 209.42 C 52.68 204.09 44.20 204.11 37.89 206.92 C 33.52 209.00 32.11 214.04 30.88 218.31 C 21.93 218.29 12.99 218.39 4.04 218.23 C 5.47 208.53 9.56 198.58 17.73 192.68 M 35.95 246.76 C 27.49 250.88 26.92 264.26 34.11 269.84 C 42.23 274.60 53.74 271.71 58.94 263.95 C 62.50 258.00 61.37 250.78 61.55 244.18 C 53.01 244.40 44.02 243.30 35.95 246.76 Z" />
<path fill="#9a9a9a" opacity="1.00" d=" M 123.97 194.93 C 136.02 185.06 152.73 182.14 167.79 185.12 C 175.92 186.84 184.14 189.90 190.14 195.85 C 197.44 202.99 201.36 213.01 202.30 223.05 C 192.93 223.17 183.55 223.06 174.18 223.05 C 172.95 218.44 171.55 213.46 167.73 210.28 C 160.09 204.10 147.61 206.07 141.93 213.98 C 136.68 220.77 135.78 229.71 135.65 238.01 C 135.69 246.27 136.22 255.09 140.79 262.26 C 146.01 270.29 157.75 272.57 165.95 267.95 C 171.98 264.71 174.61 257.94 176.06 251.63 C 185.00 251.62 193.94 251.64 202.87 251.62 C 201.81 263.31 197.13 275.33 187.62 282.68 C 175.11 292.14 158.24 294.13 143.21 290.84 C 131.97 288.78 121.60 282.35 115.17 272.84 C 106.91 261.39 105.28 246.67 106.06 232.95 C 106.91 218.66 112.66 204.12 123.97 194.93 Z" />
<path fill="#9a9a9a" opacity="1.00" d=" M 252.85 185.39 C 266.29 182.37 280.93 184.25 292.94 191.08 C 304.10 197.68 310.10 210.51 311.35 223.05 C 302.00 223.03 292.66 223.18 283.31 223.11 C 281.89 218.75 280.76 213.91 277.14 210.78 C 270.58 204.78 259.68 205.57 253.25 211.34 C 248.63 215.60 246.31 221.76 245.38 227.85 C 244.34 234.89 244.42 242.07 245.30 249.12 C 246.05 254.64 247.74 260.31 251.57 264.51 C 258.37 271.80 271.21 272.30 278.41 265.33 C 282.28 261.77 283.79 256.57 285.01 251.63 C 293.97 251.66 302.92 251.54 311.87 251.70 C 310.68 263.58 305.96 275.90 295.98 283.09 C 281.91 293.50 262.75 294.29 246.44 289.35 C 230.37 284.53 218.67 269.41 216.13 253.08 C 213.31 236.64 214.72 218.51 224.32 204.39 C 230.82 194.58 241.41 187.85 252.85 185.39 Z" />
<path fill="#9a9a9a" opacity="1.00" d=" M 334.07 203.05 C 351.50 178.33 393.31 177.30 411.81 201.29 C 421.35 213.93 421.01 230.63 420.73 245.69 C 398.17 245.68 375.60 245.69 353.04 245.69 C 353.79 253.21 355.21 261.53 361.13 266.83 C 371.26 275.65 389.76 271.36 393.95 258.26 C 402.93 258.06 411.91 258.28 420.89 258.33 C 418.65 268.29 413.31 277.96 404.57 283.59 C 388.98 293.95 368.32 294.65 351.16 287.96 C 336.53 282.09 326.74 267.30 324.82 251.93 C 322.46 235.31 323.92 217.03 334.07 203.05 M 358.62 209.69 C 354.71 213.50 353.33 218.99 352.08 224.12 C 365.61 224.03 379.14 224.29 392.66 223.92 C 391.84 218.70 390.90 212.94 386.86 209.14 C 379.14 202.14 366.12 202.60 358.62 209.69 Z" />
<path fill="#9a9a9a" opacity="1.00" d=" M 466.22 201.30 C 475.70 183.73 501.11 178.90 517.34 189.67 C 526.74 196.49 529.77 208.86 529.68 219.91 C 529.88 242.71 529.73 265.51 529.75 288.31 C 519.91 288.33 510.08 288.41 500.25 288.37 C 500.25 267.25 500.26 246.13 500.25 225.01 C 500.20 219.65 499.43 213.48 495.02 209.83 C 486.72 203.97 473.76 206.92 468.63 215.64 C 467.10 218.16 466.58 221.13 466.61 224.04 C 466.27 245.48 466.50 266.93 466.43 288.37 C 456.60 288.37 446.77 288.38 436.95 288.37 C 436.98 254.31 436.83 220.25 436.88 186.19 C 446.73 186.21 456.58 186.24 466.43 186.19 C 466.47 191.23 466.43 196.27 466.22 201.30 Z" />
<path fill="#9a9a9a" opacity="1.00" d=" M 815.71 196.70 C 827.87 185.26 846.07 181.60 862.10 185.35 C 874.66 188.16 886.38 196.37 891.72 208.31 C 897.05 219.99 896.54 233.14 896.50 245.68 C 874.23 245.71 851.95 245.67 829.68 245.70 C 830.50 253.50 832.01 262.30 838.51 267.50 C 848.81 275.54 866.26 270.89 870.44 258.26 C 879.33 258.22 888.22 258.24 897.11 258.25 C 894.18 269.80 886.88 280.58 876.17 286.17 C 861.38 293.84 843.30 294.16 827.87 288.16 C 817.84 284.41 809.91 276.20 805.42 266.60 C 800.53 256.49 799.78 244.97 800.22 233.93 C 800.85 220.26 805.69 206.32 815.71 196.70 M 832.35 213.49 C 830.42 216.68 829.37 220.28 828.27 223.81 C 841.78 224.45 855.31 223.91 868.83 224.13 C 868.11 219.18 867.51 213.77 863.90 209.97 C 855.56 200.83 838.47 202.72 832.35 213.49 Z" />
<path fill="#9a9a9a" opacity="1.00" d=" M 618.49 188.09 C 628.38 187.89 638.28 188.04 648.18 188.00 C 648.20 209.67 648.16 231.34 648.20 253.01 C 648.27 258.21 649.04 264.19 653.36 267.68 C 663.23 274.89 679.72 268.34 681.21 256.00 C 682.36 233.34 681.29 210.63 681.82 187.95 C 691.65 187.96 701.49 188.00 711.32 188.07 C 711.40 222.16 711.49 256.24 711.23 290.32 C 701.57 290.23 691.91 290.20 682.25 290.18 C 682.26 285.28 682.20 280.37 682.35 275.47 C 672.42 293.52 645.68 297.73 629.80 285.28 C 621.60 278.73 618.73 267.74 618.53 257.67 C 618.37 234.47 618.43 211.28 618.49 188.09 Z" />
<path fill="#9a9a9a" opacity="1.00" d=" M 760.68 207.53 C 766.02 195.49 778.85 187.14 792.12 187.98 C 792.11 197.53 792.34 207.07 791.90 216.61 C 782.93 216.65 772.82 217.48 766.06 224.10 C 760.75 229.63 760.53 237.79 760.75 245.00 C 760.75 260.77 760.75 276.54 760.75 292.31 C 751.00 292.35 741.25 292.32 731.50 292.31 C 731.50 257.91 731.49 223.52 731.51 189.12 C 741.25 189.12 751.00 189.13 760.75 189.12 C 760.72 195.25 760.67 201.39 760.68 207.53 Z" />
</g>
</svg>
