<?xml version="1.0" encoding="UTF-8" ?>
<!DOCTYPE svg PUBLIC "-//W3C//DTD SVG 1.1//EN" "http://www.w3.org/Graphics/SVG/1.1/DTD/svg11.dtd">
<svg width="1037pt" height="448pt" viewBox="0 0 1037 448" version="1.1" xmlns="http://www.w3.org/2000/svg">
<g id="#9b9b9bff">
<path fill="#9b9b9b" opacity="1.00" d=" M 69.90 178.78 C 75.48 175.99 81.81 172.76 88.19 174.83 C 93.44 176.67 99.48 178.26 102.82 183.09 C 107.14 189.90 109.41 197.95 109.55 206.00 C 109.73 212.49 102.33 217.10 96.38 215.58 C 92.17 211.72 91.92 205.17 87.67 201.31 C 85.25 199.67 82.25 200.99 79.80 201.88 C 69.88 206.21 61.01 212.74 53.42 220.42 C 41.70 232.02 30.95 245.03 24.06 260.13 C 21.70 265.38 20.25 272.68 24.90 277.13 C 31.53 283.11 40.99 282.83 48.93 285.89 C 52.75 287.43 56.94 286.05 60.90 286.89 C 67.07 288.34 72.91 284.96 79.05 284.89 C 85.01 284.72 90.39 281.57 94.90 277.90 C 97.65 275.54 97.64 271.60 98.16 268.32 C 82.45 269.78 67.27 274.61 51.50 275.61 C 47.67 272.16 44.93 267.26 45.30 261.98 C 45.24 256.75 46.08 249.61 52.00 247.88 C 69.59 242.50 87.88 240.08 105.97 237.06 C 112.07 236.22 118.70 234.70 124.49 237.59 C 128.64 239.76 129.74 244.72 131.21 248.76 C 132.81 253.89 135.12 259.69 132.57 264.91 C 125.22 280.21 120.91 297.02 120.48 314.00 C 120.30 318.85 121.38 323.75 120.40 328.56 C 119.34 333.64 114.17 337.46 108.97 336.72 C 104.12 336.11 97.65 335.62 95.89 330.11 C 92.36 320.30 94.67 309.66 94.99 299.53 C 84.30 304.34 72.82 308.03 60.98 307.93 C 44.70 307.88 27.96 303.99 14.59 294.38 C 9.84 291.11 7.52 285.58 5.51 280.39 C 2.63 272.22 -0.68 263.00 2.66 254.46 C 8.37 241.12 17.17 229.43 25.99 218.03 C 29.49 213.54 33.02 208.93 37.85 205.77 C 40.53 204.09 41.14 200.64 43.55 198.69 C 51.93 191.57 59.76 183.43 69.90 178.78 Z" />
<path fill="#9b9b9b" opacity="1.00" d=" M 648.03 190.44 C 668.99 186.80 689.65 181.54 709.95 175.18 C 712.36 174.38 715.32 173.75 717.46 175.57 C 725.68 181.97 729.81 193.61 726.52 203.64 C 725.92 205.69 724.71 207.72 722.62 208.52 C 718.54 210.17 714.14 210.81 709.87 211.78 C 694.24 215.18 678.45 217.89 662.98 222.00 C 655.42 223.46 652.18 231.58 650.24 238.15 C 652.82 238.69 655.45 239.37 658.11 238.89 C 669.74 237.19 681.61 235.54 692.37 230.50 C 695.14 229.03 698.89 229.74 700.75 232.34 C 705.00 238.21 706.29 245.91 705.18 252.99 C 704.42 257.65 699.87 260.63 695.48 261.30 C 678.85 263.84 662.20 266.29 645.55 268.73 C 642.67 269.26 639.57 269.44 637.01 270.98 C 633.50 274.30 634.71 280.91 639.29 282.66 C 645.84 285.43 653.27 284.15 660.04 282.88 C 667.39 281.53 673.73 277.08 681.19 276.14 C 687.07 281.66 688.46 290.35 686.99 297.99 C 686.05 304.15 681.40 309.36 675.65 311.55 C 668.49 314.35 660.93 317.00 653.12 316.33 C 642.35 315.49 631.26 312.29 623.13 304.87 C 616.52 299.06 612.68 290.54 611.78 281.86 C 610.28 268.82 613.57 255.69 618.95 243.87 C 623.94 232.44 630.92 221.97 635.32 210.27 C 637.11 205.57 639.91 201.34 641.60 196.60 C 642.64 193.71 644.72 190.78 648.03 190.44 Z" />
<path fill="#9b9b9b" opacity="1.00" d=" M 154.04 184.07 C 157.71 179.64 163.62 178.33 168.96 177.13 C 177.75 176.16 187.59 175.51 195.30 180.67 C 209.46 190.04 217.08 207.31 217.00 223.99 C 216.12 237.76 208.33 249.71 200.67 260.71 C 208.90 267.86 218.47 273.23 226.87 280.17 C 231.02 283.38 232.57 289.19 231.19 294.16 C 230.20 297.44 227.76 300.00 225.76 302.70 C 223.14 306.05 219.46 309.27 214.93 309.07 C 209.43 309.09 204.86 305.47 201.22 301.71 C 193.78 294.18 185.96 287.04 177.93 280.15 C 174.47 277.19 170.69 274.62 166.68 272.46 C 165.31 276.18 163.65 279.99 163.98 284.05 C 164.50 292.02 165.41 299.97 165.47 307.97 C 165.79 311.70 162.48 314.80 158.96 315.21 C 153.34 315.99 147.70 312.91 144.65 308.26 C 142.17 304.70 141.84 300.24 141.31 296.07 C 140.46 285.93 143.45 275.97 143.29 265.84 C 137.00 259.12 135.51 247.81 141.40 240.39 C 144.17 238.45 149.04 239.09 150.23 235.29 C 153.12 228.61 154.06 221.33 155.12 214.20 C 152.69 211.85 149.80 209.80 148.17 206.76 C 147.27 198.90 148.70 190.19 154.04 184.07 M 176.36 205.87 C 174.89 217.17 173.00 228.41 171.25 239.67 C 171.99 239.97 173.47 240.58 174.21 240.88 C 179.71 238.12 185.16 234.68 188.56 229.41 C 192.11 224.05 193.30 216.68 190.21 210.85 C 187.38 206.19 181.33 205.41 176.36 205.87 Z" />
<path fill="#9b9b9b" opacity="1.00" d=" M 755.03 188.07 C 758.45 183.90 762.01 179.29 767.25 177.36 C 771.55 176.90 776.07 178.77 778.77 182.18 C 784.36 189.15 788.81 197.28 790.42 206.15 C 791.18 210.57 792.46 214.88 793.37 219.27 C 794.75 225.70 794.19 232.48 796.61 238.69 C 800.45 231.09 803.25 222.56 809.77 216.72 C 813.28 213.56 816.20 209.69 820.30 207.25 C 836.61 197.41 854.90 190.21 874.04 188.92 C 879.39 188.36 884.67 190.83 888.28 194.69 C 896.79 204.37 900.73 218.84 895.93 231.12 C 893.62 236.71 889.11 241.96 883.01 243.35 C 875.90 243.12 868.37 239.67 864.77 233.32 C 862.63 227.15 866.48 221.07 867.06 214.94 C 859.59 212.72 851.99 215.84 845.66 219.67 C 835.70 225.82 827.17 234.96 823.40 246.20 C 822.33 249.68 821.37 253.98 823.82 257.12 C 828.67 263.27 835.77 267.03 842.63 270.51 C 851.59 274.91 861.91 278.17 871.90 275.61 C 876.54 274.64 880.33 271.68 884.27 269.24 C 885.95 268.35 887.91 266.82 889.83 268.09 C 892.65 269.62 894.45 272.39 896.52 274.76 C 895.95 256.69 902.02 239.16 910.31 223.35 C 913.11 219.01 910.81 213.67 912.18 208.95 C 913.64 203.89 916.95 199.23 921.48 196.45 C 931.14 191.77 942.09 191.93 952.48 190.15 C 974.47 186.81 996.34 182.77 1018.19 178.60 C 1020.55 178.06 1023.11 178.36 1025.10 179.83 C 1032.66 185.06 1036.65 194.31 1037.00 203.32 L 1037.00 203.69 C 1036.87 206.33 1036.42 208.94 1035.94 211.53 C 1028.94 212.42 1021.96 210.78 1014.96 211.30 C 994.95 212.37 975.02 214.55 955.16 217.18 C 951.36 217.79 947.41 218.10 943.91 219.80 C 938.56 222.56 934.81 228.55 935.83 234.67 C 946.87 236.46 958.08 234.88 968.89 232.46 C 972.02 231.92 975.57 230.66 978.53 232.51 C 986.80 237.55 990.36 248.56 987.75 257.70 C 984.70 261.64 979.49 262.80 974.81 263.42 C 967.92 264.31 960.97 265.10 954.01 264.61 C 946.96 264.08 940.03 266.12 932.99 265.67 C 930.24 265.69 926.88 264.48 925.00 267.20 C 924.27 269.62 925.37 272.26 927.39 273.70 C 930.70 276.14 934.85 277.11 938.88 277.59 C 951.75 278.95 964.05 272.25 976.91 274.02 C 981.97 280.62 979.37 289.80 976.85 296.95 C 974.88 302.74 968.14 303.99 962.95 305.27 C 949.32 308.09 934.78 311.33 921.20 306.61 C 911.37 303.47 903.88 295.69 898.53 287.15 C 895.84 293.54 893.77 300.60 888.48 305.42 C 882.84 310.86 874.58 312.53 866.99 311.71 C 841.90 310.01 819.21 295.65 803.12 276.91 C 800.10 273.41 798.32 269.10 796.18 265.06 C 794.56 276.33 795.25 287.73 795.63 299.06 C 795.79 303.92 794.52 309.38 790.40 312.41 C 788.40 314.14 785.61 313.21 783.28 312.93 C 777.80 311.95 771.68 308.84 770.44 302.90 C 768.66 293.64 769.75 284.15 769.10 274.80 C 758.71 274.27 748.03 274.51 738.09 277.89 C 735.02 278.66 733.63 281.71 732.26 284.25 C 727.68 293.19 724.84 303.23 717.91 310.79 C 710.68 309.44 703.53 305.01 700.69 298.02 C 700.28 293.15 699.79 287.90 702.27 283.47 C 707.74 271.99 716.82 261.13 715.75 247.64 C 718.98 244.90 722.51 242.28 724.53 238.44 C 734.05 221.28 743.02 203.67 755.03 188.07 M 764.55 210.73 C 758.88 220.92 754.09 231.56 749.93 242.45 C 756.66 242.38 764.04 242.96 769.85 238.89 C 771.54 231.05 771.36 222.87 769.70 215.04 C 769.14 212.60 766.46 211.80 764.55 210.73 Z" />
<path fill="#9b9b9b" opacity="1.00" d=" M 544.95 181.58 C 549.30 182.23 552.67 178.56 556.81 178.02 C 560.23 178.28 563.57 179.31 567.03 179.04 C 576.71 178.41 586.43 178.81 596.09 179.56 C 601.08 179.91 605.74 181.92 610.48 183.37 C 614.87 184.63 617.46 188.69 619.75 192.33 C 623.97 199.48 627.13 207.64 626.77 216.06 C 626.52 223.23 622.85 229.86 618.02 234.99 C 612.55 240.79 605.63 244.92 598.71 248.73 C 590.83 253.13 582.03 255.43 573.66 258.68 C 571.28 264.53 570.86 270.88 570.21 277.09 C 569.36 285.71 568.95 294.36 568.65 303.02 C 568.44 306.53 568.12 310.88 564.68 312.82 C 558.04 316.92 548.72 313.49 544.75 307.24 C 540.52 293.35 544.81 278.87 544.66 264.72 C 538.51 262.20 532.19 257.83 530.68 250.95 C 530.34 244.86 531.50 238.64 533.77 233.00 C 536.53 227.90 544.41 232.18 547.26 227.21 C 548.82 220.71 548.21 213.89 548.53 207.26 C 545.08 208.04 541.60 208.59 538.15 209.26 C 532.17 210.47 527.21 214.89 520.99 215.15 C 516.98 215.24 513.97 212.23 510.97 210.01 C 509.58 214.30 510.70 218.70 511.20 223.02 C 511.73 238.06 510.32 253.07 509.29 268.05 C 507.86 278.74 511.21 289.36 509.99 300.07 C 509.77 305.51 507.83 312.06 502.21 314.11 C 497.69 315.23 492.64 315.59 488.29 313.69 C 482.89 310.67 480.34 304.42 479.67 298.53 C 478.45 286.72 471.32 276.76 464.46 267.50 C 461.11 263.19 459.06 257.78 454.71 254.32 C 452.27 253.74 450.96 256.60 450.38 258.51 C 446.30 272.26 446.22 286.74 444.52 300.88 C 444.07 304.02 441.88 306.45 440.14 308.96 C 434.51 308.89 428.21 308.27 424.06 304.01 C 418.53 298.63 417.82 290.28 418.74 283.03 C 420.90 267.94 424.57 253.11 426.85 238.04 C 427.54 233.35 427.13 228.61 426.96 223.91 C 430.95 218.05 426.91 211.29 426.99 204.99 C 427.07 196.80 427.99 187.91 433.28 181.28 C 436.88 177.69 442.54 178.68 446.97 179.89 C 450.12 180.91 454.24 181.59 455.56 185.10 C 459.53 195.20 455.57 206.72 460.24 216.63 C 465.35 226.78 473.33 235.02 480.08 244.04 C 481.05 245.53 482.80 246.05 484.33 246.79 C 487.48 232.76 485.94 218.28 487.74 204.10 C 488.57 197.22 488.02 190.17 489.63 183.40 C 491.59 181.10 494.98 179.66 497.93 180.87 C 504.52 182.85 509.15 188.95 510.35 195.59 C 512.96 191.80 516.01 187.91 520.51 186.34 C 528.34 183.57 536.50 180.57 544.95 181.58 M 569.25 204.34 C 569.36 212.01 569.52 219.86 572.32 227.11 C 581.50 226.35 590.29 222.26 597.06 216.06 C 598.85 214.58 599.78 212.44 600.25 210.21 C 598.39 208.84 596.53 207.39 594.26 206.80 C 586.18 204.37 577.64 203.87 569.25 204.34 Z" />
<path fill="#9b9b9b" opacity="1.00" d=" M 260.98 190.16 C 277.15 187.62 292.75 182.25 308.98 180.07 C 312.83 179.58 317.35 179.70 320.25 182.66 C 324.34 187.01 326.63 192.67 328.79 198.14 C 330.38 201.63 328.54 205.29 327.59 208.67 C 315.85 213.29 302.95 213.12 291.00 216.96 C 283.99 219.04 276.49 220.26 270.38 224.54 C 267.25 227.37 267.47 232.03 267.01 235.88 C 279.32 237.70 291.04 232.66 303.02 230.91 C 307.59 230.88 310.56 235.25 312.46 238.89 C 314.90 244.20 316.95 250.68 314.27 256.29 C 311.91 260.11 306.99 260.94 302.90 261.53 C 290.30 262.95 277.58 263.61 265.15 266.21 C 262.97 266.79 260.55 267.18 258.85 268.78 C 256.74 271.47 256.66 276.32 259.95 278.13 C 267.87 282.69 278.07 282.65 286.11 278.42 C 288.07 277.27 290.73 276.65 292.59 278.33 C 300.18 284.67 303.35 296.58 298.31 305.41 C 294.37 311.86 286.15 313.99 279.03 313.53 C 269.74 312.64 260.72 309.73 252.29 305.82 C 249.03 304.19 245.46 302.67 243.29 299.59 C 240.80 296.07 237.28 293.10 236.27 288.72 C 232.32 278.01 231.59 266.17 234.61 255.12 C 236.29 247.90 239.55 241.22 242.44 234.44 C 242.93 232.86 243.92 231.18 243.49 229.50 C 241.38 225.40 237.84 222.18 236.06 217.90 C 234.69 211.13 235.94 203.08 241.33 198.30 C 244.10 195.59 248.25 196.02 251.60 194.50 C 254.88 193.36 257.38 190.40 260.98 190.16 Z" />
<path fill="#9b9b9b" opacity="1.00" d=" M 347.07 192.18 C 367.15 187.53 387.33 182.80 407.93 181.20 C 411.16 180.58 414.06 182.63 416.20 184.82 C 421.89 191.10 426.24 200.52 421.65 208.66 C 405.82 211.91 389.50 211.93 373.58 214.66 C 370.45 215.29 367.08 216.31 365.09 218.99 C 361.66 223.53 358.03 228.72 358.81 234.74 C 369.41 234.74 379.77 231.70 389.28 227.20 C 392.14 225.88 395.69 224.45 398.62 226.41 C 405.00 230.68 408.42 238.48 408.62 246.01 C 408.63 248.70 408.25 252.04 405.62 253.47 C 396.55 258.56 386.09 260.16 375.91 261.43 C 365.79 263.72 355.28 264.19 345.41 267.53 C 344.81 269.86 344.21 272.18 343.66 274.52 C 351.76 280.49 362.52 280.97 372.08 279.08 C 376.06 278.42 379.14 275.64 382.56 273.72 C 385.06 272.07 387.98 274.42 389.40 276.48 C 393.00 281.92 395.06 288.54 394.70 295.09 C 394.44 300.61 391.05 305.76 386.09 308.19 C 377.83 312.40 368.18 312.24 359.19 311.26 C 350.90 310.10 342.57 307.89 335.22 303.82 C 327.50 294.41 320.36 282.75 321.76 270.07 C 322.90 252.13 328.75 234.90 335.70 218.46 C 338.28 212.47 337.25 205.65 339.49 199.59 C 341.40 196.64 344.00 193.87 347.07 192.18 Z" />
</g>
</svg>
